<?xml version="1.0" encoding="utf-8"?>
<!-- Generator: Adobe Illustrator 22.1.0, SVG Export Plug-In . SVG Version: 6.00 Build 0)  -->
<svg xmlns="http://www.w3.org/2000/svg" xmlns:xlink="http://www.w3.org/1999/xlink" version="1.1" id="Layer_1" x="0px" y="0px" viewBox="0 0 256 256" style="enable-background:new 0 0 256 256;" xml:space="preserve" width="512" height="512">
<style type="text/css">
	.st0{fill:#7BAC51;}
	.st1{fill:#5D8E33;}
	.st2{fill:#99CA6F;}
	.st3{fill:#FCC24C;}
	.st4{fill:#690589;}
	.st5{fill:#FF4397;}
	.st6{fill:#FF9F70;}
	.st7{fill:#E18152;}
	.st8{fill:#D6D1CF;}
	.st9{fill:#F4EFED;}
	.st10{fill:#FFFFFF;}
	.st11{fill:#E12579;}
	.st12{fill:#DEA42E;}
	.st13{fill:#FCE06A;}
	.st14{fill:#FFBD8E;}
	.st15{fill:#FF61B5;}
</style>
<g>
	<g>
		<path class="st3" d="M133.402,176.55c11.876-11.876,67.933-20.902,17.458-71.377c-50.474-50.474-59.501,5.582-71.377,17.458    s-42.754,6.651-58.431,22.327c-41.33,41.329,5.463,84.559,5.463,84.559s43.23,46.793,84.559,5.463    C126.751,219.305,121.526,188.426,133.402,176.55z"/>
	</g>
	<g>
		<path class="st4" d="M250.724,39.706c-0.512,0-1.023-0.195-1.414-0.586L216.913,6.725c-0.781-0.781-0.781-2.047,0-2.828    c0.78-0.781,2.047-0.781,2.828,0l32.396,32.396c0.781,0.781,0.781,2.047,0,2.828C251.748,39.511,251.235,39.706,250.724,39.706z"/>
	</g>
	<g>
		<path class="st4" d="M242.955,47.475c-0.512,0-1.024-0.195-1.414-0.586l-32.396-32.396c-0.781-0.781-0.781-2.047,0-2.828    c0.78-0.781,2.048-0.781,2.828,0l32.396,32.396c0.781,0.781,0.781,2.047,0,2.828C243.979,47.279,243.467,47.475,242.955,47.475z"/>
	</g>
	<g>
		<path class="st4" d="M235.187,55.243c-0.512,0-1.023-0.195-1.414-0.586l-32.396-32.396c-0.781-0.781-0.781-2.047,0-2.828    c0.78-0.781,2.047-0.781,2.828,0l32.396,32.396c0.781,0.781,0.781,2.047,0,2.828C236.21,55.048,235.698,55.243,235.187,55.243z"/>
	</g>
	<g>
		<path class="st12" d="M133.402,176.55c11.876-11.876,67.933-20.902,17.458-71.377c-1.144-1.144-2.259-2.214-3.361-3.251    c44.687,47.517-9.102,56.409-20.709,68.016c-11.876,11.876-6.651,42.755-22.327,58.432c-34.479,34.478-70.273,7.633-81.195-2.216    c1.957,2.17,3.247,3.364,3.247,3.364s43.229,46.793,84.559,5.463C126.751,219.305,121.526,188.426,133.402,176.55z"/>
	</g>
	<g>
		<path class="st13" d="M79.483,122.632c11.876-11.876,20.903-67.933,71.377-17.458c1.144,1.144,2.214,2.259,3.251,3.361    c-47.517-44.687-56.409,9.102-68.016,20.709c-11.876,11.876-42.755,6.651-58.432,22.327c-34.478,34.479-7.633,70.273,2.216,81.195    c-2.17-1.957-3.364-3.247-3.364-3.247s-46.793-43.229-5.463-84.559C36.729,129.283,67.607,134.508,79.483,122.632z"/>
	</g>
	<g>
		<circle class="st5" cx="87.089" cy="168.944" r="28.518"/>
	</g>
	<g>
		<circle class="st0" cx="87.089" cy="168.944" r="19.168"/>
	</g>
	<g>
		<path class="st5" d="M60.425,225.364l-29.756-29.756c-2.068-2.068-2.068-5.421,0-7.489l0.004-0.004    c2.068-2.068,5.421-2.068,7.489,0l29.756,29.756c2.068,2.068,2.068,5.421,0,7.489l-0.004,0.004    C65.846,227.432,62.493,227.432,60.425,225.364z"/>
	</g>
	<g>
		<path class="st4" d="M73.858,254.033c-0.325,0-0.649-0.003-0.975-0.01c-26.223-0.519-46.349-21.554-47.783-23.09    c-1.536-1.434-22.571-21.56-23.09-47.782c-0.283-14.301,5.648-27.626,17.628-39.606c8.818-8.818,22.194-11.348,33.996-13.579    c9.948-1.881,19.345-3.658,24.435-8.748c2.301-2.302,4.693-6.805,7.225-11.571c5.902-11.113,13.248-24.944,26.725-26.962    c11.229-1.679,24.394,5.214,40.255,21.075s22.755,29.028,21.075,40.254c-2.017,13.478-15.848,20.823-26.96,26.726    c-4.768,2.532-9.271,4.924-11.572,7.226l0,0c-5.09,5.091-6.867,14.487-8.749,24.436c-2.231,11.801-4.761,25.178-13.579,33.995    C100.782,248.103,87.788,254.033,73.858,254.033z M115.288,86.445c-0.914,0-1.805,0.065-2.677,0.195    c-11.483,1.719-18.304,14.563-23.785,24.882c-2.792,5.258-5.204,9.799-7.929,12.523c-5.963,5.963-15.948,7.852-26.52,9.851    c-11.782,2.228-23.966,4.531-31.911,12.477c-11.174,11.174-16.711,23.513-16.458,36.674c0.479,24.919,21.65,44.806,21.864,45.003    c0.038,0.035,0.076,0.073,0.11,0.11c0.198,0.214,20.084,21.386,45.003,21.865c13.167,0.243,25.5-5.285,36.673-16.458    c7.945-7.945,10.249-20.129,12.477-31.91c1.999-10.572,3.887-20.558,9.851-26.521l0,0c2.725-2.726,7.266-5.138,12.524-7.93    c10.319-5.481,23.162-12.302,24.881-23.785c1.459-9.746-5.252-22.14-19.947-36.834C136.065,93.207,124.591,86.445,115.288,86.445z     M133.402,176.551h0.01H133.402z"/>
	</g>
	<g>
		<path class="st4" d="M103.728,100.075c-0.473,0-0.947-0.166-1.328-0.505c-0.826-0.733-0.901-1.997-0.167-2.823    c3.469-3.906,7.033-6.087,10.894-6.664c1.092-0.173,2.11,0.589,2.274,1.682s-0.59,2.11-1.682,2.273    c-2.896,0.434-5.674,2.188-8.495,5.365C104.829,99.849,104.28,100.075,103.728,100.075z"/>
	</g>
	<g>
		<path class="st4" d="M87.089,199.447c-7.815,0-15.63-2.975-21.579-8.924c-11.899-11.898-11.899-31.26,0-43.158    c11.898-11.898,31.26-11.898,43.158,0c11.899,11.898,11.899,31.26,0,43.158C102.719,196.473,94.904,199.447,87.089,199.447z     M87.089,142.439c-6.791,0-13.581,2.584-18.751,7.754c-10.339,10.34-10.339,27.162,0,37.502c10.34,10.34,27.162,10.34,37.502,0    c10.339-10.34,10.339-27.162,0-37.502C100.67,145.023,93.88,142.439,87.089,142.439z"/>
	</g>
	<g>
		<path class="st4" d="M87.089,190.103c-5.42,0-10.841-2.063-14.968-6.19c-8.253-8.253-8.253-21.683,0-29.936    c8.253-8.253,21.683-8.253,29.936,0c8.253,8.253,8.253,21.683,0,29.936C97.931,188.039,92.51,190.103,87.089,190.103z     M87.089,151.785c-4.396,0-8.792,1.673-12.14,5.02c-6.693,6.694-6.693,17.585,0,24.279c6.694,6.693,17.586,6.693,24.279,0    c6.693-6.694,6.693-17.585,0-24.279C95.882,153.458,91.485,151.785,87.089,151.785z"/>
	</g>
	<g>
		<path class="st4" d="M64.169,228.915c-1.948,0-3.78-0.759-5.158-2.137l-29.756-29.756c-1.378-1.378-2.137-3.21-2.137-5.158    c0-1.938,0.751-3.762,2.115-5.137c0.009-0.01,0.018-0.019,0.026-0.026c2.845-2.844,7.472-2.844,10.316,0l29.756,29.756    c2.844,2.845,2.844,7.473,0,10.317c-0.01,0.01-0.02,0.02-0.03,0.029C67.928,228.166,66.107,228.915,64.169,228.915z     M32.104,189.514c-0.007,0.007-0.014,0.014-0.021,0.021c-0.622,0.622-0.965,1.449-0.965,2.33c0,0.88,0.343,1.707,0.965,2.33    l29.755,29.756h0c1.245,1.244,3.416,1.244,4.66,0c0.007-0.008,0.015-0.015,0.022-0.021c1.267-1.287,1.261-3.364-0.018-4.644    l-29.756-29.756C35.468,188.251,33.39,188.244,32.104,189.514z"/>
	</g>
	<g>
		<path class="st0" d="M226.941,44.998l-15.906-15.906l-87.618,87.618c-1.953,1.953-1.953,5.118,0,7.071l8.835,8.835    c1.953,1.953,5.119,1.953,7.071,0L226.941,44.998z"/>
	</g>
	<g>
		<path class="st4" d="M135.788,136.077c-1.792,0-3.585-0.683-4.95-2.047l-8.835-8.835c-2.729-2.729-2.729-7.17,0-9.899    l87.618-87.618c0.75-0.75,2.078-0.75,2.828,0l15.906,15.906c0.781,0.781,0.781,2.047,0,2.828l-87.618,87.618    C139.373,135.395,137.581,136.077,135.788,136.077z M211.035,31.92l-86.204,86.204c-1.169,1.17-1.169,3.073,0,4.243l8.834,8.835    c1.17,1.17,3.073,1.169,4.243,0l86.203-86.204L211.035,31.92z"/>
	</g>
	<g>
		<path class="st0" d="M248.941,16.09l-8.998-8.998c-3.905-3.905-10.237-3.905-14.142,0l-20.899,20.899    c-3.905,3.905-3.905,10.237,0,14.142l8.998,8.998c3.905,3.905,10.237,3.905,14.142,0l20.899-20.899    C252.847,26.327,252.847,19.995,248.941,16.09z"/>
	</g>
	<g>
		<path class="st4" d="M220.972,56.054c-3.073,0-6.146-1.169-8.485-3.509l-8.998-8.998c-4.679-4.679-4.679-12.292,0-16.971    l20.898-20.898c4.679-4.681,12.292-4.679,16.97,0l8.998,8.998c4.679,4.679,4.679,12.292,0,16.971l-20.898,20.898    C227.118,54.885,224.045,56.054,220.972,56.054z M232.873,6.167c-2.049,0-4.098,0.779-5.657,2.339l-20.898,20.898    c-3.119,3.119-3.119,8.195,0,11.314l8.998,8.998c3.12,3.119,8.195,3.119,11.314,0l20.898-20.898c3.119-3.119,3.119-8.195,0-11.314    l-8.998-8.998C236.97,6.946,234.921,6.167,232.873,6.167z"/>
	</g>
	<g>
		<path class="st4" d="M205.398,67.328c-0.512,0-1.024-0.195-1.414-0.586l-14.858-14.858c-0.781-0.781-0.781-2.047,0-2.828    c0.78-0.781,2.048-0.781,2.828,0l14.858,14.858c0.781,0.781,0.781,2.047,0,2.828C206.422,67.133,205.91,67.328,205.398,67.328z"/>
	</g>
	<g>
		<path class="st4" d="M191.128,81.598c-0.512,0-1.024-0.195-1.414-0.586l-14.858-14.858c-0.781-0.781-0.781-2.047,0-2.828    c0.78-0.781,2.048-0.781,2.828,0l14.858,14.858c0.781,0.781,0.781,2.047,0,2.828C192.152,81.402,191.64,81.598,191.128,81.598z"/>
	</g>
	<g>
		<path class="st4" d="M176.858,95.867c-0.512,0-1.023-0.195-1.414-0.586l-14.858-14.858c-0.781-0.781-0.781-2.047,0-2.828    c0.78-0.781,2.047-0.781,2.828,0l14.858,14.858c0.781,0.781,0.781,2.047,0,2.828C177.882,95.672,177.37,95.867,176.858,95.867z"/>
	</g>
	<g>
		<path class="st4" d="M162.589,110.137c-0.512,0-1.024-0.195-1.414-0.586l-14.858-14.858c-0.781-0.781-0.781-2.047,0-2.828    c0.78-0.781,2.048-0.781,2.828,0l14.858,14.858c0.781,0.781,0.781,2.047,0,2.828C163.613,109.941,163.101,110.137,162.589,110.137    z"/>
	</g>
	<g>
		<path class="st4" d="M148.319,124.407c-0.512,0-1.024-0.195-1.414-0.586l-14.858-14.858c-0.781-0.781-0.781-2.047,0-2.828    c0.78-0.781,2.048-0.781,2.828,0l14.858,14.858c0.781,0.781,0.781,2.047,0,2.828C149.343,124.212,148.831,124.407,148.319,124.407    z"/>
	</g>
	<g>
		<path class="st4" d="M212.564,36.223c-0.512,0-1.023-0.195-1.414-0.586c-0.781-0.781-0.781-2.047,0-2.828l18.837-18.838    c0.78-0.781,2.047-0.781,2.828,0s0.781,2.047,0,2.828l-18.837,18.838C213.588,36.027,213.076,36.223,212.564,36.223z"/>
	</g>
	<g>
		<path class="st4" d="M221.812,45.47c-0.512,0-1.023-0.195-1.414-0.586c-0.781-0.781-0.781-2.047,0-2.828l18.837-18.838    c0.78-0.781,2.047-0.781,2.828,0s0.781,2.047,0,2.828l-18.837,18.838C222.835,45.274,222.323,45.47,221.812,45.47z"/>
	</g>
</g>
</svg>
