<?xml version="1.0" standalone="no"?><!-- Generator: Gravit.io --><svg xmlns="http://www.w3.org/2000/svg" xmlns:xlink="http://www.w3.org/1999/xlink" style="isolation:isolate" viewBox="360 329 119 36" width="119" height="36"><defs><clipPath id="_clipPath_aJr3UcO3ZPe4o2GasgjyD3TjDibm1eMB"><rect width="800" height="600"/></clipPath></defs><g clip-path="url(#_clipPath_aJr3UcO3ZPe4o2GasgjyD3TjDibm1eMB)"><g><path d=" M 456 146 Q 473 156.333 453 178 Q 453.688 163.688 448 153 Q 447.563 144.813 456 146 Z " fill="rgb(104,83,72)" vector-effect="non-scaling-stroke" stroke-width="1" stroke="rgb(104,83,72)" stroke-linejoin="miter" stroke-linecap="square" stroke-miterlimit="3"/><path d=" M 451 120 Q 467.333 136.667 449 156 Q 447.667 149.333 437 137 Q 432.667 122.333 451 120 Z " fill="rgb(125,100,86)" vector-effect="non-scaling-stroke" stroke-width="1" stroke="rgb(104,83,72)" stroke-linejoin="miter" stroke-linecap="square" stroke-miterlimit="3"/></g><g><path d=" M 344.811 154 Q 327.811 164.333 347.811 186 Q 347.123 171.688 352.811 161 Q 353.248 152.813 344.811 154 Z " fill="rgb(104,83,72)" vector-effect="non-scaling-stroke" stroke-width="1" stroke="rgb(104,83,72)" stroke-linejoin="miter" stroke-linecap="square" stroke-miterlimit="3"/><path d=" M 349.811 128 Q 333.477 144.667 351.811 164 Q 353.144 157.333 363.811 145 Q 368.144 130.333 349.811 128 Z " fill="rgb(125,100,86)" vector-effect="non-scaling-stroke" stroke-width="1" stroke="rgb(104,83,72)" stroke-linejoin="miter" stroke-linecap="square" stroke-miterlimit="3"/></g><circle vector-effect="non-scaling-stroke" cx="399.99999999999994" cy="175.50000000000003" r="53.5" fill="rgb(255,205,147)"/><path d=" M 367.496 143.004 Q 403.829 160.671 426.496 143.004 Q 453.829 121.338 453.496 113.004 Q 441.829 116.671 426.496 119.004 Q 377.163 102.671 358.496 113.004 Q 339.829 123.338 353.496 150.004 L 367.496 143.004 Z " fill="rgb(104,83,72)" vector-effect="non-scaling-stroke" stroke-width="1" stroke="rgb(104,83,72)" stroke-linejoin="miter" stroke-linecap="square" stroke-miterlimit="3"/><path d=" M 392.11 198 Q 401.093 207.563 409.11 198" fill="none" vector-effect="non-scaling-stroke" stroke-width="1" stroke="rgb(104,83,72)" stroke-linejoin="miter" stroke-linecap="square" stroke-miterlimit="3"/><g transform="matrix(1.68,0,0,1.68,353.496,317)"><text transform="matrix(1,0,0,1,2.58,26.06)" style="font-family:'Pacifico';font-weight:400;font-size:20px;font-style:normal;fill:#ffc31f;stroke:none;">Pramod</text></g></g></svg>